<svg width="80" height="80" viewBox="0 0 80 80" fill="none" xmlns="http://www.w3.org/2000/svg">
<g clip-path="url(#clip0_87_4344)">
<mask id="path-1-inside-1_87_4344" fill="white">
<path fill-rule="evenodd" clip-rule="evenodd" d="M22.1876 24.125C24.0001 25.8125 26.7658 27.5781 28.3283 28.0781C29.0783 28.3281 30.3283 28.5781 31.3908 28.7031C32.2033 28.8281 32.8283 28.8281 34.8439 28.8281H42.3595C51.6876 28.8281 51.5626 28.8281 52.2501 28.7031C53.5001 28.4531 54.5001 28.0781 55.5783 27.3906C56.3908 26.8281 56.7658 26.7656 57.0783 27.2031C57.2501 27.4531 57.9376 29.25 59.1408 32.5938C60.1408 35.5469 60.4533 36.4844 60.4533 36.7344C60.3908 37.0469 60.0158 36.9219 58.0783 35.9219C56.2033 34.9844 55.3908 34.6719 53.9377 34.2969C52.3752 33.9219 51.9376 33.8594 50.297 33.8594C48.6564 33.8594 45.8439 34.1094 45.0939 34.2344L44.8439 34.2969V41.875H45.2814C46.6564 41.8125 47.5314 41.3125 47.9064 40.5C47.9689 40.25 48.0314 39.9375 48.0939 39.375C48.1564 38.25 48.2814 37.9375 48.7814 37.5C49.2814 37 49.8439 37.1875 50.0939 37.9375C50.2189 38.3125 50.2189 38.6875 50.2189 43.5156C50.2189 48.3438 50.2189 49.5938 49.9064 50.2188C49.7189 50.6562 49.5314 50.7813 49.1564 50.6563C48.4689 50.5313 48.1564 49.8438 48.0314 48.5313C47.9689 48.1563 47.9064 47.7188 47.8439 47.5938C47.5939 46.7188 46.7814 46.2188 45.4064 46.1562L44.7814 46.0938V56.5625C44.7814 65.3281 44.7814 66.9688 44.9064 66.9688C45.0939 66.9688 46.0939 66.2188 46.6564 65.6563C47.4689 64.8438 47.9064 64.2188 48.7189 62.5938C50.0939 59.6406 52.3595 54.6406 57.4845 42.7969C58.4845 40.5469 59.3595 38.5938 59.4845 38.4063C59.547 38.2813 59.672 38.1563 59.797 38.0938C60.047 37.9063 59.797 37.1563 64.4376 50.5C65.3751 53.25 66.6251 56.8281 67.1876 58.4531C68.3126 61.7031 69.0001 63.7188 69.2502 64.2812C69.5627 64.9688 70.1876 65.8438 70.8751 66.5938C71.6251 67.3438 71.6876 67.4688 71.3126 67.8438L71.1252 68.0312H65.7345C62.672 68.0312 60.2189 68.0312 60.1564 67.9688C59.9689 67.9062 59.9064 67.7188 60.0314 67.4688C60.0939 67.4062 60.2814 67.2188 60.4689 67.0938C61.4689 66.4062 62.2814 64.7812 62.2189 63.5781C62.1564 63.0156 61.7814 61.8281 61.4689 61.1406L61.2189 60.7031H52.4533L52.3283 60.8906C52.0783 61.2031 51.3283 62.6406 51.1408 63.2031C50.8908 63.9531 50.9533 64.7031 51.2033 65.2031C51.6408 66.2031 52.5158 66.8281 53.7033 67.0156C54.3283 67.0781 54.6408 67.7031 54.2658 68.0156L54.1408 68.2031H49.4376L44.7345 68.2656V70.4531L45.172 70.8906C45.6095 71.2656 46.6095 72.7031 47.172 73.6406C47.422 74.1406 47.8751 74.5312 48.547 74.8281C49.547 75.3281 50.047 75.4531 51.5626 75.4531C53.0783 75.4531 53.1251 75.5156 53.2501 75.8906C53.4376 76.2656 52.6251 77.2656 51.5626 78.0781C50.5001 78.8281 48.8751 79.5781 47.7345 79.8281C46.9845 80.0156 45.8595 80.0781 45.172 79.9531C44.172 79.7656 42.9845 79.2031 42.047 78.3906C41.797 78.1406 41.172 77.5781 40.7345 77.0781C39.7345 75.9531 39.3595 75.5781 38.797 75.3281C38.172 75.0156 36.922 74.6406 35.2814 74.2031C32.8439 73.5781 32.7189 73.5156 32.9689 73.0781C33.0939 72.8281 33.5314 72.5156 34.4064 72.0781C35.2814 71.5781 35.5939 71.3906 36.0314 70.9531C36.4064 70.5781 36.6564 70.1406 36.8439 69.5781L37.0314 69.1406V34.0156H36.5939C32.2033 34.4531 29.3908 34.0156 27.0158 32.6406C25.8283 31.8906 24.2658 30.5156 23.2501 29.2656C21.5001 27.1406 20.4376 24.4375 21.0001 23.6875C21.0783 23.5625 21.172 23.5 21.2501 23.5C21.5001 23.5 21.7501 23.6875 22.1876 24.125ZM25.4533 37.6563C25.5158 37.7188 25.7033 38.1562 25.8283 38.6562C26.0158 39.2188 27.1408 42.2969 28.2658 45.6094C30.7033 52.5 31.0783 53.625 32.5314 57.8281C34.0939 62.4062 34.5314 63.5312 34.7189 63.9062C35.0314 64.5312 35.5939 65.2812 36.2814 66.0312C36.6564 66.4063 36.8439 66.6562 36.8439 66.8438C36.8439 67.0312 36.7189 67.2188 36.4689 67.3438L36.2189 67.4062H30.8908C26.1251 67.4062 25.5001 67.4062 25.4376 67.3438C25.1251 67.1562 25.1876 66.8438 25.5626 66.5938C26.3127 66.2188 26.9376 65.2812 27.3126 64.2812C27.4376 63.9062 27.4376 63.7812 27.5001 63.2812C27.5001 62.5312 27.4376 62.1562 26.9376 61.0312L26.6251 60.1562H17.5939L17.1564 61.0938C16.0939 63.1562 16.0314 64.0938 16.8439 65.1094C17.0939 65.4844 17.6564 65.9844 17.9689 66.1094C18.1564 66.2344 18.4689 66.2969 18.7814 66.4219C19.0314 66.4844 19.3439 66.5469 19.3439 66.5469C19.6564 66.6719 19.8439 67.0469 19.6564 67.2969C19.5939 67.3594 19.4689 67.4844 19.4064 67.5469C19.2189 67.6094 19.0314 67.6094 14.0158 67.6094C9.00015 67.6094 8.75015 67.6094 8.62515 67.5469C8.42202 67.5 8.32827 67.3594 8.37515 67.1094C8.43765 66.8594 8.50015 66.7344 8.81265 66.7344C10.0001 66.5469 11.1251 65.9219 12.1876 64.7969C12.8751 63.9844 13.7501 62.4219 15.6408 58.2812C16.4376 56.5312 19.1095 50.4219 23.6564 39.9844C24.5939 37.9844 24.6564 37.8594 24.8439 37.6094C24.9689 37.4844 25.0783 37.4219 25.1564 37.4219C25.3283 37.4219 25.4064 37.5313 25.4533 37.6563ZM19.0001 56.9375C18.9376 57 19.1251 57 22.3126 57C25.5001 57 25.6876 57 25.6251 56.9375C25.1251 55.5 22.6251 49.1094 22.6251 49.1094C22.5783 49.1094 19.0001 56.8125 19.0001 56.9375ZM53.7033 57.5781C53.7033 57.5781 54.9533 57.6406 57.0158 57.6406C59.0783 57.6406 60.3908 57.5781 60.3283 57.5781C60.3283 57.5156 59.7033 55.7656 58.8908 53.625C58.0783 51.5 57.3908 49.7344 57.3283 49.7344C57.3283 49.7344 53.7658 57.25 53.7033 57.5781Z"/>
</mask>
<path fill-rule="evenodd" clip-rule="evenodd" d="M22.1876 24.125C24.0001 25.8125 26.7658 27.5781 28.3283 28.0781C29.0783 28.3281 30.3283 28.5781 31.3908 28.7031C32.2033 28.8281 32.8283 28.8281 34.8439 28.8281H42.3595C51.6876 28.8281 51.5626 28.8281 52.2501 28.7031C53.5001 28.4531 54.5001 28.0781 55.5783 27.3906C56.3908 26.8281 56.7658 26.7656 57.0783 27.2031C57.2501 27.4531 57.9376 29.25 59.1408 32.5938C60.1408 35.5469 60.4533 36.4844 60.4533 36.7344C60.3908 37.0469 60.0158 36.9219 58.0783 35.9219C56.2033 34.9844 55.3908 34.6719 53.9377 34.2969C52.3752 33.9219 51.9376 33.8594 50.297 33.8594C48.6564 33.8594 45.8439 34.1094 45.0939 34.2344L44.8439 34.2969V41.875H45.2814C46.6564 41.8125 47.5314 41.3125 47.9064 40.5C47.9689 40.25 48.0314 39.9375 48.0939 39.375C48.1564 38.25 48.2814 37.9375 48.7814 37.5C49.2814 37 49.8439 37.1875 50.0939 37.9375C50.2189 38.3125 50.2189 38.6875 50.2189 43.5156C50.2189 48.3438 50.2189 49.5938 49.9064 50.2188C49.7189 50.6562 49.5314 50.7813 49.1564 50.6563C48.4689 50.5313 48.1564 49.8438 48.0314 48.5313C47.9689 48.1563 47.9064 47.7188 47.8439 47.5938C47.5939 46.7188 46.7814 46.2188 45.4064 46.1562L44.7814 46.0938V56.5625C44.7814 65.3281 44.7814 66.9688 44.9064 66.9688C45.0939 66.9688 46.0939 66.2188 46.6564 65.6563C47.4689 64.8438 47.9064 64.2188 48.7189 62.5938C50.0939 59.6406 52.3595 54.6406 57.4845 42.7969C58.4845 40.5469 59.3595 38.5938 59.4845 38.4063C59.547 38.2813 59.672 38.1563 59.797 38.0938C60.047 37.9063 59.797 37.1563 64.4376 50.5C65.3751 53.25 66.6251 56.8281 67.1876 58.4531C68.3126 61.7031 69.0001 63.7188 69.2502 64.2812C69.5627 64.9688 70.1876 65.8438 70.8751 66.5938C71.6251 67.3438 71.6876 67.4688 71.3126 67.8438L71.1252 68.0312H65.7345C62.672 68.0312 60.2189 68.0312 60.1564 67.9688C59.9689 67.9062 59.9064 67.7188 60.0314 67.4688C60.0939 67.4062 60.2814 67.2188 60.4689 67.0938C61.4689 66.4062 62.2814 64.7812 62.2189 63.5781C62.1564 63.0156 61.7814 61.8281 61.4689 61.1406L61.2189 60.7031H52.4533L52.3283 60.8906C52.0783 61.2031 51.3283 62.6406 51.1408 63.2031C50.8908 63.9531 50.9533 64.7031 51.2033 65.2031C51.6408 66.2031 52.5158 66.8281 53.7033 67.0156C54.3283 67.0781 54.6408 67.7031 54.2658 68.0156L54.1408 68.2031H49.4376L44.7345 68.2656V70.4531L45.172 70.8906C45.6095 71.2656 46.6095 72.7031 47.172 73.6406C47.422 74.1406 47.8751 74.5312 48.547 74.8281C49.547 75.3281 50.047 75.4531 51.5626 75.4531C53.0783 75.4531 53.1251 75.5156 53.2501 75.8906C53.4376 76.2656 52.6251 77.2656 51.5626 78.0781C50.5001 78.8281 48.8751 79.5781 47.7345 79.8281C46.9845 80.0156 45.8595 80.0781 45.172 79.9531C44.172 79.7656 42.9845 79.2031 42.047 78.3906C41.797 78.1406 41.172 77.5781 40.7345 77.0781C39.7345 75.9531 39.3595 75.5781 38.797 75.3281C38.172 75.0156 36.922 74.6406 35.2814 74.2031C32.8439 73.5781 32.7189 73.5156 32.9689 73.0781C33.0939 72.8281 33.5314 72.5156 34.4064 72.0781C35.2814 71.5781 35.5939 71.3906 36.0314 70.9531C36.4064 70.5781 36.6564 70.1406 36.8439 69.5781L37.0314 69.1406V34.0156H36.5939C32.2033 34.4531 29.3908 34.0156 27.0158 32.6406C25.8283 31.8906 24.2658 30.5156 23.2501 29.2656C21.5001 27.1406 20.4376 24.4375 21.0001 23.6875C21.0783 23.5625 21.172 23.5 21.2501 23.5C21.5001 23.5 21.7501 23.6875 22.1876 24.125ZM25.4533 37.6563C25.5158 37.7188 25.7033 38.1562 25.8283 38.6562C26.0158 39.2188 27.1408 42.2969 28.2658 45.6094C30.7033 52.5 31.0783 53.625 32.5314 57.8281C34.0939 62.4062 34.5314 63.5312 34.7189 63.9062C35.0314 64.5312 35.5939 65.2812 36.2814 66.0312C36.6564 66.4063 36.8439 66.6562 36.8439 66.8438C36.8439 67.0312 36.7189 67.2188 36.4689 67.3438L36.2189 67.4062H30.8908C26.1251 67.4062 25.5001 67.4062 25.4376 67.3438C25.1251 67.1562 25.1876 66.8438 25.5626 66.5938C26.3127 66.2188 26.9376 65.2812 27.3126 64.2812C27.4376 63.9062 27.4376 63.7812 27.5001 63.2812C27.5001 62.5312 27.4376 62.1562 26.9376 61.0312L26.6251 60.1562H17.5939L17.1564 61.0938C16.0939 63.1562 16.0314 64.0938 16.8439 65.1094C17.0939 65.4844 17.6564 65.9844 17.9689 66.1094C18.1564 66.2344 18.4689 66.2969 18.7814 66.4219C19.0314 66.4844 19.3439 66.5469 19.3439 66.5469C19.6564 66.6719 19.8439 67.0469 19.6564 67.2969C19.5939 67.3594 19.4689 67.4844 19.4064 67.5469C19.2189 67.6094 19.0314 67.6094 14.0158 67.6094C9.00015 67.6094 8.75015 67.6094 8.62515 67.5469C8.42202 67.5 8.32827 67.3594 8.37515 67.1094C8.43765 66.8594 8.50015 66.7344 8.81265 66.7344C10.0001 66.5469 11.1251 65.9219 12.1876 64.7969C12.8751 63.9844 13.7501 62.4219 15.6408 58.2812C16.4376 56.5312 19.1095 50.4219 23.6564 39.9844C24.5939 37.9844 24.6564 37.8594 24.8439 37.6094C24.9689 37.4844 25.0783 37.4219 25.1564 37.4219C25.3283 37.4219 25.4064 37.5313 25.4533 37.6563ZM19.0001 56.9375C18.9376 57 19.1251 57 22.3126 57C25.5001 57 25.6876 57 25.6251 56.9375C25.1251 55.5 22.6251 49.1094 22.6251 49.1094C22.5783 49.1094 19.0001 56.8125 19.0001 56.9375ZM53.7033 57.5781C53.7033 57.5781 54.9533 57.6406 57.0158 57.6406C59.0783 57.6406 60.3908 57.5781 60.3283 57.5781C60.3283 57.5156 59.7033 55.7656 58.8908 53.625C58.0783 51.5 57.3908 49.7344 57.3283 49.7344C57.3283 49.7344 53.7658 57.25 53.7033 57.5781Z" fill="#BA9F6C" stroke="#042240" stroke-width="2" mask="url(#path-1-inside-1_87_4344)"/>
<path d="M46.3581 17.1084C45.8564 16.755 45.237 16.3135 44.5763 15.8307C43.971 15.3884 43.4099 14.9726 42.9393 14.624C42.7793 14.5054 42.6297 14.3947 42.4925 14.2932C42.2232 14.0942 41.9995 13.9298 41.8385 13.8148C41.7587 13.7578 41.6897 13.7096 41.6364 13.6746C41.6108 13.6577 41.5818 13.6392 41.5538 13.6233C41.5406 13.6158 41.5188 13.6039 41.4928 13.5924C41.4922 13.5922 41.4007 13.5469 41.2813 13.5469H40.7813V13.8233C40.7702 13.8319 40.7584 13.841 40.7459 13.8506C40.6037 13.9599 40.3936 14.1144 40.1283 14.3048C39.5991 14.6847 38.864 15.1981 38.0454 15.7595L38.0373 15.7651L38.0294 15.7709C37.4124 16.2306 36.9225 16.5962 36.5333 16.8867C36.4354 16.9597 36.3438 17.0281 36.2582 17.0919C36.4324 16.5569 36.64 15.922 36.8501 15.2807C37.3815 13.6593 37.9279 12.0004 37.99 11.8144L37.9998 11.7848L38.0059 11.7543L38.0684 11.4418L38.1306 11.1308L37.8757 10.942L34.9226 8.75447L34.9227 8.75438L34.914 8.74824L33.1774 7.51814L39.0199 7.46873L39.3937 7.46557L39.4964 7.10611L39.6106 6.70624C39.656 6.60423 39.7121 6.45027 39.7712 6.27988C39.8453 6.06632 39.9365 5.79013 40.0387 5.47075C40.2427 4.83316 40.4932 4.01543 40.7434 3.1631C40.9359 2.56873 41.116 2.00944 41.2673 1.53797C41.3336 1.73194 41.4051 1.94317 41.4812 2.16925C41.8879 3.37764 42.4213 5.00116 42.9591 6.66139L43.0817 7.09048L43.1835 7.4468L43.5541 7.45305L47.2572 7.51555L47.2572 7.51563H47.2656H49.4245L47.7382 8.73551L47.7362 8.73693C46.924 9.3305 46.1742 9.87723 45.6274 10.2756L44.9772 10.7491L44.7993 10.8785L44.753 10.9123L44.7411 10.9209L44.7382 10.923L44.7374 10.9236L44.7372 10.9237L44.7372 10.9237L45.0313 11.3281L44.7372 10.9238L44.5313 11.0735V11.3281C44.5313 11.383 44.541 11.4294 44.5422 11.4354L44.5423 11.436C44.5455 11.4518 44.549 11.4665 44.5518 11.4778C44.5576 11.5011 44.565 11.5281 44.573 11.5563C44.5893 11.6136 44.6124 11.691 44.6411 11.7845C44.6986 11.9722 44.7814 12.2347 44.8832 12.5528C45.0868 13.1891 45.3683 14.0532 45.6809 14.9989C45.936 15.7897 46.1703 16.5205 46.3581 17.1084Z" fill="#BA9F6C" stroke="#042240"/>
<path d="M21.9531 15.3437L21.6758 14.9277L21.6757 14.9278L21.6756 14.9279L21.6751 14.9282L21.6733 14.9293L21.6666 14.9338L21.6408 14.9511L21.5427 15.0171C21.4579 15.0743 21.3359 15.157 21.1864 15.2592C20.8876 15.4637 20.4785 15.7469 20.0375 16.0619L20.0375 16.0619L20.0349 16.0638C19.8673 16.1851 19.7161 16.2949 19.5797 16.394C19.615 16.2838 19.651 16.1715 19.6871 16.0588C19.7034 16.0078 19.7198 15.9566 19.7363 15.9053C19.9788 15.1483 20.2256 14.3782 20.2966 14.1343L20.3378 14.0517L20.5256 13.6762L20.1882 13.4263L18.5007 12.1763L18.5008 12.1763L18.4937 12.1713L18.1227 11.9062H20.7031H21.0935L21.1882 11.5275L21.2462 11.2955C21.2679 11.2293 21.3048 11.1129 21.3528 10.9611C21.3844 10.8614 21.4207 10.7464 21.4608 10.6204C21.5699 10.2777 21.7097 9.8426 21.865 9.37686L21.9434 9.14147C22.1464 9.76616 22.3978 10.5285 22.6607 11.298L22.7181 11.5275L22.8127 11.9062H23.2031H25.7488L25.3529 12.1848L25.3421 12.1924L25.3317 12.2006C24.9405 12.508 24.5746 12.7773 24.287 12.9891C24.2583 13.0102 24.2304 13.0307 24.2034 13.0506C24.0567 13.1587 23.9283 13.2538 23.8364 13.3265C23.7917 13.3619 23.7449 13.4003 23.7061 13.4369C23.6879 13.4541 23.6591 13.4825 23.6311 13.5181C23.6172 13.5357 23.5946 13.5663 23.5735 13.6072C23.5561 13.641 23.5156 13.7267 23.5156 13.8437V13.9138L23.5349 13.9811L24.0156 13.8437L23.5349 13.9812L23.5349 13.9812L23.5349 13.9814L23.5351 13.982L23.5358 13.9842L23.5381 13.9924L23.547 14.0232C23.5548 14.05 23.5663 14.0892 23.5812 14.1394C23.6111 14.2399 23.6547 14.3845 23.7101 14.5626C23.8199 14.9157 23.9766 15.4014 24.1647 15.9351C24.2144 16.104 24.2641 16.2681 24.3126 16.4247C24.1723 16.3283 24.0245 16.228 23.8717 16.126C23.4321 15.7812 23.0252 15.4839 22.7271 15.2721C22.5762 15.1649 22.4528 15.0793 22.3668 15.0203C22.3238 14.9908 22.2902 14.9679 22.267 14.9523L22.2404 14.9344L22.2333 14.9296L22.2313 14.9283L22.2308 14.9279L22.2306 14.9278L22.2305 14.9278L21.9531 15.3437ZM21.9531 15.3437L21.6758 14.9277L21.9531 14.7428L22.2305 14.9277L21.9531 15.3437ZM18.1632 17.5651C18.1618 17.5701 18.1605 17.5751 18.1593 17.5799C18.1574 17.5873 18.1546 17.5988 18.1519 17.6118C18.1505 17.6182 18.1484 17.6288 18.1465 17.6417L18.1465 17.6418C18.1452 17.6502 18.1406 17.6803 18.1406 17.7188H18.6388L18.8949 16.895C18.7111 17.0305 18.5866 17.1237 18.5021 17.1879C18.406 17.2609 18.3509 17.3046 18.3186 17.3331C18.3104 17.3403 18.2947 17.3544 18.2778 17.3723C18.27 17.3805 18.253 17.3989 18.2346 17.4242C18.2345 17.4244 18.2343 17.4247 18.234 17.425C18.2283 17.4327 18.1894 17.4843 18.1632 17.5651ZM18.1632 17.5651C18.155 17.5901 18.1481 17.618 18.1438 17.6482C18.132 17.7307 18.1337 17.8804 18.2403 18.021C18.344 18.1579 18.4817 18.1995 18.5541 18.2119C18.6714 18.2322 18.7654 18.2035 18.778 18.1996C18.7785 18.1995 18.7788 18.1994 18.7791 18.1993C18.8075 18.191 18.8291 18.182 18.8384 18.178C18.8444 18.1754 18.8495 18.1731 18.8535 18.1712L18.8593 18.1684L18.8619 18.1671L18.8631 18.1665C18.8637 18.1663 18.8642 18.166 18.6406 17.7188L18.8642 18.166L19.1406 18.0278V17.9587C19.3447 17.8045 19.7646 17.4942 20.6201 16.8747L18.1632 17.5651Z" fill="#BA9F6C" stroke="#042240"/>
<path d="M58.7813 15.1563L58.5039 14.7403L58.5038 14.7403L58.5036 14.7404L58.503 14.7408L58.5011 14.7421L58.494 14.7469L58.4673 14.7648C58.4442 14.7804 58.4105 14.8033 58.3675 14.8328C58.2815 14.8918 58.1582 14.9774 58.0073 15.0846C57.7078 15.2974 57.2983 15.5966 56.8564 15.9435C56.7158 16.0439 56.5877 16.1356 56.4709 16.2193C56.5056 16.1138 56.541 16.0064 56.5765 15.8984C56.8339 15.116 57.1105 14.2698 57.187 14.0097L57.2285 13.9267L57.4174 13.5488L57.0763 13.2994L55.4513 12.1119L55.0629 11.8281H57.5313H57.8313L57.9724 11.5634L58.0974 11.329L58.1562 11.2187V11.1099C58.1563 11.1101 58.1563 11.1101 58.1564 11.1101C58.1574 11.1103 58.1632 11.0747 58.19 10.9801C58.2207 10.872 58.265 10.7315 58.3202 10.5579C58.3261 10.5395 58.332 10.5208 58.338 10.5018C58.4428 10.1728 58.5762 9.75387 58.6965 9.30513C58.7214 9.23526 58.746 9.16623 58.77 9.09834C58.9731 9.71097 59.2252 10.4642 59.4888 11.2355L59.5462 11.465L59.6409 11.8438H60.0313H62.4996L62.1134 12.126C61.6771 12.4376 61.2829 12.7214 60.9969 12.9359C60.8546 13.0427 60.7326 13.1371 60.6438 13.2114C60.6008 13.2474 60.5559 13.2868 60.5183 13.325C60.5006 13.3431 60.4731 13.3723 60.4467 13.4087C60.4335 13.4269 60.413 13.4573 60.394 13.4973C60.378 13.5311 60.3437 13.6111 60.3437 13.7188V13.7888L60.363 13.8561L60.8437 13.7188L60.363 13.8561L60.363 13.8562L60.363 13.8563L60.3632 13.8569L60.3638 13.8589L60.366 13.8666L60.3746 13.8966L60.4075 14.0104C60.436 14.1087 60.4773 14.2501 60.5283 14.4229C60.6304 14.7683 60.7718 15.2397 60.929 15.7429L60.9317 15.7516L60.9348 15.7602C60.9915 15.921 61.0454 16.0761 61.096 16.2235C60.9722 16.1342 60.842 16.0406 60.7061 15.9435C60.2642 15.5966 59.8547 15.2974 59.5552 15.0846C59.4043 14.9774 59.281 14.8918 59.195 14.8328C59.152 14.8033 59.1183 14.7804 59.0952 14.7648L59.0685 14.7469L59.0614 14.7421L59.0595 14.7408L59.0589 14.7404L59.0587 14.7403L59.0586 14.7403L58.7813 15.1563ZM58.7813 15.1563L58.5039 14.7402L58.7813 14.5553L59.0586 14.7402L58.7813 15.1563Z" fill="#BA9F6C" stroke="#042240"/>
</g>
<defs>
<clipPath id="clip0_87_4344">
<rect width="80" height="80" fill="white"/>
</clipPath>
</defs>
</svg>
