<svg width="944" height="886" viewBox="0 0 944 886" fill="none" xmlns="http://www.w3.org/2000/svg">
<rect x="1018.24" y="-625" width="41.6368" height="1182.58" rx="20.8184" transform="rotate(44.4564 1018.24 -625)" fill="#082952"/>
<rect x="1048.24" y="-693" width="19.0553" height="1182.58" rx="9.52766" transform="rotate(44.4564 1048.24 -693)" fill="#082952"/>
<rect x="1582.24" y="-54" width="29.8248" height="1182.58" rx="14.9124" transform="rotate(44.4564 1582.24 -54)" fill="#98CEF0"/>
<rect x="1615.24" y="-89" width="5.99149" height="1182.58" rx="2.99574" transform="rotate(44.4564 1615.24 -89)" fill="#98CEF0"/>
<rect x="1650.24" y="-59" width="16.72" height="1182.58" rx="8.36" transform="rotate(44.4564 1650.24 -59)" fill="#98CEF0"/>
<rect x="1193.24" y="-69" width="179.309" height="1182.58" rx="89.6544" transform="rotate(44.4564 1193.24 -69)" fill="#042240"/>
<path d="M1403.59 -17.837C1418.31 -32.8386 1442.4 -33.0673 1457.4 -18.3476C1472.4 -3.62796 1472.63 20.466 1457.91 35.4677L682.978 825.248C668.258 840.25 644.164 840.478 629.163 825.758C614.161 811.039 613.932 786.945 628.652 771.943L1403.59 -17.837Z" fill="#98CEF0"/>
<rect x="300.676" y="400" width="27.7544" height="373.625" rx="13.8772" transform="rotate(44.4564 300.676 400)" fill="#98CEF0"/>
<rect x="495.484" y="33" width="21.7356" height="553.261" rx="10.8678" transform="rotate(44.4564 495.484 33)" fill="#98CEF0"/>
<rect x="978.16" y="180" width="31.8991" height="915.462" rx="15.9495" transform="rotate(44.4564 978.16 180)" fill="#98CEF0"/>
<rect x="350.674" y="589" width="27.7544" height="373.625" rx="13.8772" transform="rotate(44.4564 350.674 589)" fill="#98CEF0"/>
<path d="M367.359 517.942C371.017 514.214 377.005 514.157 380.733 517.815C384.461 521.473 384.518 527.46 380.86 531.188L132.432 784.375C128.774 788.103 122.786 788.16 119.058 784.502C115.33 780.844 115.274 774.857 118.932 771.129L367.359 517.942Z" fill="#042240"/>
<path d="M399.05 465.75C402.708 462.022 408.696 461.965 412.424 465.623C416.152 469.281 416.209 475.269 412.551 478.997L164.123 732.184C160.465 735.912 154.478 735.969 150.75 732.311C147.022 728.653 146.965 722.665 150.623 718.937L399.05 465.75Z" fill="#042240"/>
<rect x="261.674" y="510" width="14.2581" height="373.625" rx="7.12905" transform="rotate(44.4564 261.674 510)" fill="#98CEF0"/>
<rect x="1615.24" y="6" width="50.61" height="1182.58" rx="25.305" transform="rotate(44.4564 1615.24 6)" fill="#98CEF0"/>
<rect x="1038.24" y="-756" width="14.8745" height="1182.58" rx="7.43727" transform="rotate(44.4564 1038.24 -756)" fill="#98CEF0"/>
<rect x="1048.24" y="-785" width="6.31563" height="1182.58" rx="3.15782" transform="rotate(44.4564 1048.24 -785)" fill="#98CEF0"/>
</svg>
