<svg width="184" height="213" viewBox="0 0 184 213" fill="none" xmlns="http://www.w3.org/2000/svg">
<g clip-path="url(#clip0_87_4289)">
<path d="M106.886 116.213C118.245 109.201 125.259 99.43 128.232 86.4025C125.869 88.28 123.887 90.1575 121.6 91.6135C119.351 93.0312 116.797 93.9891 114.243 94.9087C118.093 90.6173 120.914 85.9427 122.4 80.4635C125.907 67.5892 121.371 54.3701 110.66 46.5153C105.018 42.3772 100.024 37.5876 96.6319 31.3421C92.8962 24.5218 91.8289 17.28 93.5824 9.6934C93.6967 9.15697 93.773 8.62054 93.9255 7.66264C82.7947 16.1305 75.5903 26.7058 72.0071 39.7716C68.462 52.7225 69.3388 65.5202 74.4467 78.3561C70.3299 76.287 67.2422 73.6432 64.6883 70.348C62.1343 67.0145 60.5333 63.2595 59.5422 59.0447C51.9184 72.1106 52.414 101.154 76.8482 116.098C53.2145 110.312 31.601 86.7474 33.3164 55.7495C35.0699 24.8283 60.0377 0.535817 91.0284 -0.000609986C122.133 -0.537037 146.682 22.5677 150.418 51.0749C154.763 84.0652 132.502 109.852 106.886 116.213Z" fill="#D5C27B"/>
<path d="M122.818 199.513C121.484 206.295 117.901 210.855 111.268 212.541C103.187 214.61 94.9533 209.437 93.0474 201.237C92.8949 200.586 92.285 200.05 91.8657 199.437C91.4464 200.011 90.7984 200.548 90.6459 201.199C89.0068 208.096 83.1365 212.847 76.0463 212.924C68.9943 212.962 62.9334 208.211 61.3324 201.352C61.18 200.739 61.0275 200.126 60.8369 199.437C57.2537 199.437 54.0136 198.632 51.1166 196.525C45.7418 192.616 43.569 185.643 45.7418 179.321C47.9527 172.922 54.1661 168.822 60.9894 169.243C67.4696 169.665 73.0731 174.454 74.5597 180.815C74.5978 181.006 74.5597 181.236 74.6741 181.39C75.0553 181.849 75.4746 182.271 75.8939 182.731C76.2751 182.271 76.885 181.888 77.0374 181.39C78.5622 175.259 82.2216 171.197 88.3588 169.665C96.5162 167.634 104.559 172.73 106.541 180.968C106.694 181.619 107.342 182.118 107.761 182.692C108.181 182.118 108.867 181.619 109.019 181.006C110.811 173.42 118.015 168.285 125.525 169.282C133.606 170.393 139.133 177.098 138.714 185.336C138.295 192.999 132.043 199.053 124.229 199.36C123.809 199.437 123.352 199.475 122.818 199.513ZM135.702 184.378C135.741 178.209 131.128 173.152 124.839 172.385C119.121 171.696 113.479 175.872 112.107 181.658C111.84 182.769 112.031 183.344 113.174 183.842C118.206 185.834 121.332 189.589 122.475 194.877C122.742 196.141 123.276 196.41 124.381 196.333C130.633 196.026 135.664 190.7 135.702 184.378ZM59.922 172.347C53.5181 172.347 48.1433 177.635 47.9527 184.11C47.7621 190.509 53.0225 196.103 59.3884 196.41C60.5701 196.486 61.0275 196.026 61.2562 194.877C62.3617 189.628 65.4874 185.949 70.4047 183.957C71.6627 183.459 71.8533 182.807 71.5864 181.658C70.4047 176.332 65.373 172.309 59.922 172.347ZM119.502 199.092C119.426 199.015 119.349 198.862 119.235 198.824C113.632 196.716 110.087 192.846 108.867 186.869C108.791 186.486 108.104 186.026 107.685 186.026C107.304 186.026 106.694 186.601 106.618 186.984C105.436 192.616 102.158 196.41 96.8974 198.632C96.44 198.824 95.9444 199.781 96.0207 200.28C96.8593 205.874 102.387 210.127 108.295 209.859C114.203 209.629 119.083 204.877 119.502 199.092ZM75.8176 209.897C81.3068 209.974 86.3003 206.104 87.5583 200.816C87.8632 199.59 87.6726 198.9 86.3385 198.364C81.383 196.41 78.4097 192.655 77.0756 187.482C76.9231 186.907 76.2751 186.486 75.8558 185.949C75.4364 186.447 74.7884 186.907 74.6359 187.52C73.378 192.655 70.4429 196.371 65.5255 198.287C64.0008 198.9 64.0008 199.666 64.3057 200.893C65.6399 205.989 70.481 209.82 75.8176 209.897ZM91.7513 172.347C86.186 172.385 81.2686 176.485 80.1251 181.888C79.8964 182.922 80.1251 183.344 81.078 183.727C86.2622 185.758 89.4642 189.513 90.684 194.992C90.7984 195.49 91.4845 195.911 91.9038 196.333C92.2469 195.911 92.8187 195.49 92.933 195.03C94.1528 189.628 97.2405 185.873 102.348 183.842C103.454 183.382 103.759 182.922 103.492 181.734C102.272 176.294 97.2786 172.309 91.7513 172.347ZM80.3919 186.792C80.8493 190.7 84.1657 194.532 87.5583 195.145C86.4909 191.237 84.2419 188.516 80.3919 186.792ZM96.0588 195.413C100.252 193.804 103.378 189.857 103.111 186.869C99.4514 188.555 97.1642 191.237 96.0588 195.413ZM71.5864 187.022C67.9651 188.057 64.8775 191.773 64.6107 195.413C68.1938 193.689 70.5191 191.084 71.5864 187.022ZM119.235 195.452C118.511 191.352 115.347 187.673 112.145 187.175C113.212 191.007 115.461 193.689 119.235 195.452Z" fill="#D5C27B"/>
<path d="M142.907 142.269C142.907 147.556 138.829 151.656 133.492 151.694C128.232 151.733 123.962 147.595 123.924 142.384C123.886 137.134 128.003 132.919 133.263 132.881C138.676 132.843 142.869 136.904 142.907 142.269ZM140.277 142.307C140.239 138.399 137.189 135.333 133.416 135.372C129.68 135.41 126.707 138.437 126.669 142.23C126.631 145.985 129.871 149.28 133.53 149.204C137.189 149.204 140.315 146.024 140.277 142.307Z" fill="#D5C27B"/>
<path d="M55.463 151.158C54.6625 151.158 53.9764 151.158 53.6333 151.158C52.8328 149.587 52.261 148.054 51.3462 146.79C50.9268 146.254 49.7452 146.1 48.9065 146.139C46.6956 146.177 45.857 147.403 45.2852 151.235C44.5229 151.235 43.7605 151.235 42.9219 151.235C42.9219 145.219 42.9219 139.318 42.9219 132.996C45.6664 133.149 48.3348 133.111 50.8887 133.533C53.214 133.916 54.7006 135.563 55.0437 137.939C55.3868 140.2 54.6244 142.077 52.7184 143.418C52.4516 143.61 52.2229 143.763 51.8036 144.069C54.6625 145.564 55.9585 147.786 55.463 151.158ZM45.4377 144.912C47.4199 143.801 49.1734 142.958 50.8125 141.924C52.3372 140.928 52.7566 139.012 52.0323 137.556C51.2699 136.023 47.3437 134.835 45.9333 135.755C45.7046 135.908 45.514 136.253 45.514 136.521C45.4377 139.203 45.4377 141.924 45.4377 144.912Z" fill="#D5C27B"/>
<path d="M33.0499 151.35C32.1731 151.35 31.487 151.35 30.6484 151.35C30.6102 150.737 30.5721 150.124 30.4959 149.511C30.1528 146.713 27.2558 144.606 24.5493 145.257C24.13 145.372 23.6345 146.062 23.5964 146.522C23.482 148.054 23.5582 149.587 23.5582 151.311C22.7577 151.35 22.0335 151.388 20.9662 151.426C20.9662 149.549 20.9662 147.786 20.9662 146.024C20.9662 143.61 20.928 141.196 20.9662 138.744C21.0424 135.219 23.3677 132.881 26.8365 132.805C30.3053 132.728 32.8974 134.989 33.0117 138.437C33.1261 142.69 33.0499 146.905 33.0499 151.35ZM30.3053 144.146C30.3053 142.345 30.4959 140.238 30.2672 138.207C30.0766 136.406 28.7043 135.487 26.9127 135.448C25.2736 135.448 24.0157 136.33 23.7107 137.901C23.4439 139.395 23.6345 141.004 23.6345 142.192C26.036 142.92 28.1706 143.533 30.3053 144.146Z" fill="#D5C27B"/>
<path d="M81.7266 102.573C83.2132 102.19 84.5474 101.577 85.8815 101.539C87.5206 101.462 89.2741 101.615 90.837 102.037C91.7518 102.267 92.3236 102.343 93.2385 102.075C94.8014 101.615 96.5548 101.462 98.1939 101.539C99.6043 101.615 100.977 102.228 102.387 102.573C101.358 105.83 97.2791 108.704 93.1241 109.01C88.283 109.317 83.785 106.788 81.7266 102.573Z" fill="#D5C27B"/>
<path d="M103.379 151.388C106.123 147.978 108.639 144.798 111.155 141.617C111.613 141.043 112.108 140.391 112.375 139.701C112.985 138.245 112.68 136.904 111.308 135.985C109.859 135.027 108.411 135.142 107.115 136.253C105.933 137.249 105.742 138.667 106.543 139.855C107.496 141.272 106.619 141.885 105.819 142.652C103.341 140.583 102.845 137.556 104.561 135.18C106.314 132.766 109.935 132.077 112.604 133.647C115.158 135.142 116.073 138.054 114.586 140.736C113.595 142.499 112.222 144.031 111.003 145.679C110.278 146.637 109.516 147.556 108.487 148.897C111.117 148.897 113.404 148.897 115.768 148.897C115.768 149.894 115.768 150.545 115.768 151.35C111.727 151.388 107.763 151.388 103.379 151.388Z" fill="#D5C27B"/>
<path d="M151.408 151.349C153.772 148.399 155.982 145.64 158.155 142.843C158.841 142 159.528 141.157 160.099 140.237C160.938 138.858 160.976 137.44 159.68 136.253C158.498 135.141 156.592 135.065 155.296 136.061C153.962 137.134 153.695 138.59 154.61 139.969C155.487 141.349 154.534 141.885 153.848 142.651C151.484 140.812 150.875 137.938 152.323 135.563C153.848 133.072 157.24 132.114 160.061 133.379C162.653 134.528 163.949 137.172 162.996 139.816C162.577 140.965 161.815 142.077 161.09 143.073C159.794 144.874 158.346 146.598 157.012 148.361C156.935 148.437 156.974 148.59 156.935 148.935C159.184 148.935 161.433 148.935 163.759 148.935C163.759 149.855 163.759 150.506 163.759 151.311C159.756 151.349 155.754 151.349 151.408 151.349Z" fill="#D5C27B"/>
<path d="M2.47727 151.158C0.647566 151.695 -0.0385749 151.235 -0.000455986 149.319C0.113901 144.032 0.0376629 138.744 0.0376629 132.92C3.01094 133.15 5.86986 133.15 8.5763 133.686C10.5966 134.108 11.8545 135.794 12.1976 137.939C12.5407 140.123 12.007 142.039 10.2154 143.38C9.26244 144.108 8.15699 144.683 7.08966 145.219C3.43025 147.059 3.23965 147.25 2.47727 151.158ZM2.62975 144.951C4.3451 144.032 5.7555 143.265 7.12778 142.499C7.39461 142.346 7.66145 142.192 7.92828 142.001C9.60551 140.736 10.1011 138.667 9.10996 137.135C8.27135 135.87 4.42134 134.874 3.16341 135.679C2.85846 135.87 2.66787 136.407 2.66787 136.79C2.62975 139.434 2.62975 142.039 2.62975 144.951Z" fill="#D5C27B"/>
<path d="M87.6739 137.939C86.1491 138.36 85.3105 138.092 84.5863 136.636C84.2051 135.87 82.566 135.372 81.5367 135.487C80.7362 135.563 79.5164 136.751 79.4783 137.479C79.4402 138.36 80.3169 139.51 81.0793 140.123C81.9179 140.813 83.1377 141.004 84.2051 141.464C87.2165 142.69 88.5506 144.644 88.1694 147.211C87.7501 149.817 85.6917 151.541 82.7947 151.694C79.6689 151.848 77.2674 150.277 76.505 147.556C76.3907 147.211 76.3907 146.828 76.3145 146.368C77.6486 146.1 78.6778 145.832 79.364 147.556C80.0501 149.242 81.7655 149.74 83.3665 149.166C84.2432 148.859 85.2343 147.863 85.4249 147.02C85.5774 146.292 84.9293 144.989 84.2813 144.491C83.1377 143.648 81.6511 143.227 80.3169 142.652C77.3437 141.387 76.1239 139.472 76.6575 136.943C77.1912 134.49 79.8214 132.69 82.6041 132.881C85.6155 133.111 87.4071 134.874 87.6739 137.939Z" fill="#D5C27B"/>
<path d="M175.308 133.225C174.889 138.167 174.546 143.149 181.483 143.762C181.483 142.037 181.483 140.198 181.483 138.206C182.436 138.206 183.161 138.206 183.961 138.206C183.961 142.535 183.961 146.789 183.961 151.195C183.237 151.195 182.513 151.195 181.674 151.195C181.636 150.697 181.483 150.199 181.521 149.701C181.636 147.746 180.645 146.367 178.929 145.946C173.555 144.605 171.916 141.079 172.564 135.945C172.678 135.102 172.564 134.183 172.564 133.225C173.593 133.225 174.317 133.225 175.308 133.225Z" fill="#D5C27B"/>
<path d="M67.28 151.388C66.4795 151.388 65.7552 151.388 64.8023 151.388C64.8023 146.943 64.726 142.575 64.8785 138.207C64.9166 137.671 66.1745 137.211 67.2419 136.406C67.28 141.847 67.28 146.56 67.28 151.388Z" fill="#D5C27B"/>
<path d="M64.878 135.448C64.8399 134.682 64.8018 134.069 64.7637 133.303C65.6404 133.303 66.4028 133.303 67.2795 133.303C67.3176 133.801 67.3176 134.299 67.3558 134.95C66.5934 135.142 65.7929 135.295 64.878 135.448Z" fill="#D5C27B"/>
</g>
<defs>
<clipPath id="clip0_87_4289">
<rect width="184" height="213" fill="white"/>
</clipPath>
</defs>
</svg>
